<svg width="28" height="28" fill="none" xmlns="http://www.w3.org/2000/svg"><path d="m25.084 21-7.75-7m-6.667 0-7.75 7M2.334 8.167l9.525 6.668c.772.54 1.157.81 1.577.914.37.093.758.093 1.129 0 .419-.104.805-.374 1.576-.914l9.526-6.668M7.933 23.333h12.134c1.96 0 2.94 0 3.689-.381a3.5 3.5 0 0 0 1.53-1.53c.38-.748.38-1.729.38-3.689v-7.466c0-1.96 0-2.94-.38-3.69a3.5 3.5 0 0 0-1.53-1.529c-.749-.381-1.729-.381-3.69-.381H7.935c-1.96 0-2.94 0-3.69.381a3.5 3.5 0 0 0-1.529 1.53c-.381.748-.381 1.728-.381 3.689v7.466c0 1.96 0 2.94.381 3.69a3.5 3.5 0 0 0 1.53 1.529c.748.381 1.728.381 3.689.381Z" stroke="#111" stroke-width="2" stroke-linecap="round" stroke-linejoin="round"/></svg>