<svg xmlns="http://www.w3.org/2000/svg" width="20" height="32" fill="none"><path fill="#fff" d="M9 30.89a8.64 8.64 0 0 1-3.4-5.35H0V2.42c3 1.44 5.15 4.6 5.39 7.88l.84 6.49-.4-.05c-.9 0-1.68.82-1.68 1.61 0 .75.6 1.39 1.38 1.55l1.02.23c1.67-3.06 2.63-6.05 2.63-8.98 0-2.64-.36-5.29-.43-8 0-1.2.49-2.3 1.26-3.15a4.65 4.65 0 0 1 1.25 3.16c0 2.7-.42 5.35-.42 8 0 2.92.95 5.91 2.63 8.97l1.02-.23c.78-.16 1.38-.81 1.38-1.55 0-.8-.79-1.6-1.68-1.6l-.42.05.84-6.49c.43-3.28 2.4-6.45 5.39-7.88v23.12h-5.58a8.27 8.27 0 0 1-3.41 5.35c-.42.29-.78.63-1.02 1.1a3 3 0 0 0-.98-1.11ZM2.66 17.56c.23-.86.89-1.61 1.74-2.08l-.66-5.35a8.29 8.29 0 0 0-2.04-4.37v11.78h.96v.02Zm2.82 6.37c0-.81.12-1.55.3-2.3l-.79-.18a3.38 3.38 0 0 1-2.33-2.3h-.96v4.78h3.78Zm3.7 0c0-.98-.78-1.84-1.8-1.96a7.3 7.3 0 0 0-.3 1.96h2.1Zm0 1.62H7.32c.3 1.26.96 2.42 1.87 3.4v-3.4Zm2.64-5a19.8 19.8 0 0 1-1.8-3.97 19.8 19.8 0 0 1-1.8 3.97c.72.16 1.31.63 1.8 1.15.48-.52 1.08-.99 1.8-1.15Zm1.14 3.38c0-.7-.12-1.32-.3-1.96-1.01.12-1.8.98-1.8 1.96h2.1Zm-.23 1.62h-1.87v3.4c.91-1 1.57-2.14 1.87-3.4Zm5.62-1.62v-4.78h-.96a3.41 3.41 0 0 1-2.33 2.3l-.78.18c.17.75.3 1.49.3 2.3h3.77Zm0-6.37V5.76a7.8 7.8 0 0 0-2.04 4.37l-.65 5.35c.84.47 1.5 1.2 1.73 2.08h.96Z"/></svg>